<svg width="256" height="256" viewBox="0 0 256 256" fill="none" xmlns="http://www.w3.org/2000/svg">
<path d="M105.5 26.8468C119.423 18.8083 136.577 18.8083 150.5 26.8468L204.351 57.9378C218.274 65.9763 226.851 80.832 226.851 96.909V159.091C226.851 175.168 218.274 190.024 204.351 198.062L150.5 229.153C136.577 237.192 119.423 237.192 105.5 229.153L51.6488 198.062C37.7257 190.024 29.1488 175.168 29.1488 159.091V96.909C29.1488 80.832 37.7257 65.9763 51.6488 57.9378L105.5 26.8468Z" stroke="#334155" stroke-width="24"/>
<path d="M63 159.393C63 150.836 71.3827 144.794 79.5 147.5C87.9458 150.818 93.5 158.967 93.5 168.042V209L63 192V159.393Z" fill="#334155"/>
</svg>
